<svg xmlns="http://www.w3.org/2000/svg" xmlns:xlink="http://www.w3.org/1999/xlink" xmlns:lucid="lucid" width="900" height="480"><g transform="translate(-360 -60)" lucid:page-tab-id="h.NW6ZhydR_X"><path d="M810 86a6 6 0 0 1 6-6h418a6 6 0 0 1 6 6v428a6 6 0 0 1-6 6H816a6 6 0 0 1-6-6z" fill="#edf5ff"/><path d="M813.08 80.78l.2-.13.87-.36.9-.23h2.03m4.02 0h4.03m4.03 0h4.03m4.02 0h4.03m4.02 0h4.03m4.03 0h4.03m4.03 0h4m4.04 0h4.03m4.03 0h4.03m4.03 0h4.02m4.03 0h4.04m4.03 0h4.03m4.03 0h4.02m4.03 0h4.03m4.04-.02h4.03m4.02 0h4.02m4.03 0h4.03m4.03 0h4.04m4.02 0h4.03m4.02 0h4.03m4.03 0h4.03m4.03 0h4.03m4.03 0h4.02m4.03 0h4.03m4.02 0h4.03m4.03 0h4.03m4.02 0h4.02m4.03 0h4.03m4.03-.02h4.03m4.03 0h4m4.04 0h4.03m4.03 0h4.03m4.03 0h4.02m4.03 0h4.04m4.03 0h4.03m4.03 0h4.02m4.03 0h4.03m4.04 0h4.03m4.02 0h4.02m4.03 0h4.03m4.03 0h4.04m4.02 0h4.03m4.02-.02h4.03m4.03 0h4.03m4.03 0h4.03m4.03 0h4.02m4.03 0h4.03m4.02 0h4.03m4.03 0h4.03m4.02 0h4.02m4.03 0h4.03m4.03 0h4.03m4.03 0h2l.94.07.9.22.23.08m3.15 2.7l.13.2.36.87.23.9v2m0 3.97V95m0 3.96v3.97m0 3.98v3.98m0 3.97v3.97m0 3.97v3.96m0 3.98v3.97m0 3.98v3.97m0 3.97v3.97m0 3.97v3.97m0 3.97v3.98m0 3.97v3.97m0 3.98v3.97m0 3.97v3.97m0 3.98l.02 3.97m0 3.98v3.97m0 3.97v3.97m0 3.97v3.98m0 3.98v3.97m0 3.97v3.97m0 3.97v3.97m0 4v3.96m0 3.97v3.97m0 3.97v3.97m0 3.97v4m0 3.96v3.97m0 3.97v3.97m0 3.97v3.98m0 3.97v3.96m.02 3.97v3.97m0 3.97v3.98m0 3.97v3.97m0 3.96v3.97m0 3.97v3.98m0 3.97v3.97m0 3.97v3.96m0 3.97V373m0 3.98v3.97m0 3.97v3.97m0 3.96v3.98m0 3.97v3.98m0 3.97v3.97m0 3.97v3.97m0 3.97l.02 3.97m0 3.98v3.97m0 3.97v3.98m0 3.97v3.97m0 3.97v3.98m0 3.97v3.98m0 3.97v3.97m0 3.97v3.97m0 3.98v3.98m0 3.97v3.97m0 3.97v3.97m0 3.97v2l-.07.94-.22.9-.08.23m-2.7 3.15l-.2.13-.87.36-.9.23h-2.03m-4.02 0h-4.03m-4.03 0h-4.03m-4.02 0h-4.03m-4.02 0h-4.03m-4.03 0h-4.03m-4.03 0h-4m-4.04 0h-4.03m-4.03 0h-4.03m-4.03 0h-4.02m-4.03 0h-4.04m-4.03 0h-4.03m-4.03 0h-4.02m-4.03 0h-4.03m-4.04.02h-4.03m-4.02 0h-4.02m-4.03 0h-4.03m-4.03 0h-4.04m-4.02 0h-4.03m-4.02 0h-4.03m-4.03 0h-4.03m-4.03 0h-4.03m-4.03 0h-4.02m-4.03 0h-4.03m-4.02 0h-4.03m-4.03 0h-4.03m-4.02 0h-4.02m-4.03 0h-4.03m-4.03.02h-4.03m-4.03 0h-4m-4.04 0h-4.03m-4.03 0h-4.03m-4.03 0h-4.02m-4.03 0h-4.04m-4.03 0H959m-4.03 0h-4.02m-4.03 0h-4.03m-4.04 0h-4.03m-4.02 0h-4.02m-4.03 0h-4.03m-4.03 0h-4.04m-4.02 0h-4.03m-4.02.02h-4.03m-4.03 0h-4.03m-4.03 0h-4.03m-4.03 0h-4.02m-4.03 0h-4.03m-4.02 0h-4.03m-4.03 0h-4.03m-4.02 0h-4.02m-4.03 0h-4.03m-4.03 0h-4.03m-4.03 0h-2l-.94-.07-.9-.22-.23-.08m-3.15-2.7l-.13-.2-.36-.87-.23-.9v-2m0-3.97V505m0-3.96v-3.97m0-3.98v-3.98m0-3.97v-3.97m0-3.97v-3.96m0-3.98v-3.97m0-3.98v-3.97m0-3.97v-3.97m0-3.97v-3.97m0-3.97v-3.98m0-3.97v-3.97m0-3.98v-3.97m0-3.97v-3.97m0-3.98l-.02-3.97m0-3.98v-3.97m0-3.97v-3.97m0-3.97v-3.98m0-3.98v-3.97m0-3.97v-3.97m0-3.97v-3.97m0-4v-3.96m0-3.97v-3.97m0-3.97v-3.97m0-3.97v-4m0-3.96v-3.97m0-3.97v-3.97m0-3.97v-3.98m0-3.97v-3.96m-.02-3.97v-3.97m0-3.97v-3.98m0-3.97v-3.97m0-3.96v-3.97m0-3.97v-3.98m0-3.97v-3.97m0-3.97v-3.96m0-3.97V227m0-3.98v-3.97m0-3.97v-3.97m0-3.96v-3.98m0-3.97v-3.98m0-3.97v-3.97m0-3.97v-3.97m0-3.97l-.02-3.97m0-3.98v-3.97m0-3.97v-3.98m0-3.97v-3.97m0-3.97v-3.98m0-3.97v-3.98m0-3.97v-3.97m0-3.97v-3.97m0-3.98v-3.98m0-3.97V99.9m0-3.97v-3.97m0-3.97v-2l.07-.94.22-.9.08-.23" stroke="#3a414a" fill="none"/><use xlink:href="#a" transform="matrix(1,0,0,1,815,85) translate(29.351851851851848 17.77777777777778)"/><use xlink:href="#b" transform="matrix(1,0,0,1,815,85) translate(124.72222222222221 17.77777777777778)"/><use xlink:href="#c" transform="matrix(1,0,0,1,815,85) translate(177.0679012345679 17.77777777777778)"/><use xlink:href="#d" transform="matrix(1,0,0,1,815,85) translate(213.42592592592592 17.77777777777778)"/><use xlink:href="#e" transform="matrix(1,0,0,1,815,85) translate(273.05555555555554 17.77777777777778)"/><use xlink:href="#f" transform="matrix(1,0,0,1,815,85) translate(318.05555555555554 17.77777777777778)"/><path d="M380 86a6 6 0 0 1 6-6h418a6 6 0 0 1 6 6v428a6 6 0 0 1-6 6H386a6 6 0 0 1-6-6z" fill="#edf5ff"/><path d="M383.08 80.78l.2-.13.87-.36.9-.23h2.03m4.02 0h4.03m4.03 0h4.03m4.02 0h4.03m4.02 0h4.03m4.03 0h4.03m4.03 0h4m4.04 0h4.03m4.03 0h4.03m4.03 0h4.02m4.03 0h4.04m4.03 0h4.03m4.03 0h4.02m4.03 0h4.03m4.04-.02h4.03m4.02 0h4.02m4.03 0h4.03m4.03 0h4.04m4.02 0h4.03m4.02 0h4.03m4.03 0h4.03m4.03 0h4.03m4.03 0h4.02m4.03 0h4.03m4.02 0h4.03m4.03 0h4.03m4.02 0h4.02m4.03 0h4.03m4.03-.02h4.03m4.03 0h4m4.04 0h4.03m4.03 0h4.03m4.03 0h4.02m4.03 0h4.04m4.03 0H661m4.03 0h4.02m4.03 0h4.03m4.04 0h4.03m4.02 0h4.02m4.03 0h4.03m4.03 0h4.04m4.02 0h4.03m4.02-.02h4.03m4.03 0h4.03m4.03 0h4.03m4.03 0h4.02m4.03 0h4.03m4.02 0h4.03m4.03 0h4.03m4.02 0h4.02m4.03 0h4.03m4.03 0h4.03m4.03 0h2l.94.07.9.22.23.08m3.15 2.7l.13.2.36.87.23.9v2m0 3.97V95m0 3.96v3.97m0 3.98v3.98m0 3.97v3.97m0 3.97v3.96m0 3.98v3.97m0 3.98v3.97m0 3.97v3.97m0 3.97v3.97m0 3.97v3.98m0 3.97v3.97m0 3.98v3.97m0 3.97v3.97m0 3.98l.02 3.97m0 3.98v3.97m0 3.97v3.97m0 3.97v3.98m0 3.98v3.97m0 3.97v3.97m0 3.97v3.97m0 4v3.96m0 3.97v3.97m0 3.97v3.97m0 3.97v4m0 3.96v3.97m0 3.97v3.97m0 3.97v3.98m0 3.97v3.96m.02 3.97v3.97m0 3.97v3.98m0 3.97v3.97m0 3.96v3.97m0 3.97v3.98m0 3.97v3.97m0 3.97v3.96m0 3.97V373m0 3.98v3.97m0 3.97v3.97m0 3.96v3.98m0 3.97v3.98m0 3.97v3.97m0 3.97v3.97m0 3.97l.02 3.97m0 3.98v3.97m0 3.97v3.98m0 3.97v3.97m0 3.97v3.98m0 3.97v3.98m0 3.97v3.97m0 3.97v3.97m0 3.98v3.98m0 3.97v3.97m0 3.97v3.97m0 3.97v2l-.07.94-.22.9-.08.23m-2.7 3.15l-.2.13-.87.36-.9.23h-2.03m-4.02 0h-4.03m-4.03 0h-4.03m-4.02 0h-4.03m-4.02 0h-4.03m-4.03 0h-4.03m-4.03 0h-4m-4.04 0h-4.03m-4.03 0h-4.03m-4.03 0h-4.02m-4.03 0h-4.04m-4.03 0h-4.03m-4.03 0h-4.02m-4.03 0h-4.03m-4.04.02h-4.03m-4.02 0h-4.02m-4.03 0h-4.03m-4.03 0h-4.04m-4.02 0h-4.03m-4.02 0h-4.03m-4.03 0h-4.03m-4.03 0h-4.03m-4.03 0h-4.02m-4.03 0h-4.03m-4.02 0h-4.03m-4.03 0h-4.03m-4.02 0h-4.02m-4.03 0h-4.03m-4.03.02h-4.03m-4.03 0h-4m-4.04 0h-4.03m-4.03 0h-4.03m-4.03 0h-4.02m-4.03 0h-4.04m-4.03 0H529m-4.03 0h-4.02m-4.03 0h-4.03m-4.04 0h-4.03m-4.02 0h-4.02m-4.03 0h-4.03m-4.03 0h-4.04m-4.02 0h-4.03m-4.02.02h-4.03m-4.03 0h-4.03m-4.03 0h-4.03m-4.03 0h-4.02m-4.03 0h-4.03m-4.02 0h-4.03m-4.03 0h-4.03m-4.02 0h-4.02m-4.03 0h-4.03m-4.03 0h-4.03m-4.03 0h-2l-.94-.07-.9-.22-.23-.08m-3.15-2.7l-.13-.2-.36-.87-.23-.9v-2m0-3.97V505m0-3.96v-3.97m0-3.98v-3.98m0-3.97v-3.97m0-3.97v-3.96m0-3.98v-3.97m0-3.98v-3.97m0-3.97v-3.97m0-3.97v-3.97m0-3.97v-3.98m0-3.97v-3.97m0-3.98v-3.97m0-3.97v-3.97m0-3.98l-.02-3.97m0-3.98v-3.97m0-3.97v-3.97m0-3.97v-3.98m0-3.98v-3.97m0-3.97v-3.97m0-3.97v-3.97m0-4v-3.96m0-3.97v-3.97m0-3.97v-3.97m0-3.97v-4m0-3.96v-3.97m0-3.97v-3.97m0-3.97v-3.98m0-3.97v-3.96m-.02-3.97v-3.97m0-3.97v-3.98m0-3.97v-3.97m0-3.96v-3.97m0-3.97v-3.98m0-3.97v-3.97m0-3.97v-3.96m0-3.97V227m0-3.98v-3.97m0-3.97v-3.97m0-3.96v-3.98m0-3.97v-3.98m0-3.97v-3.97m0-3.97v-3.97m0-3.97l-.02-3.97m0-3.98v-3.97m0-3.97v-3.98m0-3.97v-3.97m0-3.97v-3.98m0-3.97v-3.98m0-3.97v-3.97m0-3.97v-3.97m0-3.98v-3.98m0-3.97V99.9m0-3.97v-3.97m0-3.97v-2l.07-.94.22-.9.08-.23" stroke="#3a414a" fill="none"/><use xlink:href="#g" transform="matrix(1,0,0,1,385,85) translate(123.82716049382717 17.77777777777778)"/><use xlink:href="#h" transform="matrix(1,0,0,1,385,85) translate(201.97530864197532 17.77777777777778)"/><use xlink:href="#i" transform="matrix(1,0,0,1,385,85) translate(224.81481481481484 17.77777777777778)"/><path d="M731.2 368.4h-30.24v-1h30.23zm191.92-.25h-14.35v-1h14.35z" stroke="#3a414a" stroke-width=".05" fill="#3a414a"/><path d="M700.98 368.4h-.52v-1h.52z" fill="#3a414a"/><path d="M701 368.42h-.56v-1.05h.56zm-.5-1v.95h.45v-.95z" stroke="#3a414a" stroke-width=".05" fill="#3a414a"/><path d="M937.88 367.65l-14.26 4.63V363z" fill="#3a414a"/><path d="M939.5 367.65l-16.38 5.32v-10.65zm-15.38 3.94l12.15-3.95-12.15-3.95z" stroke="#3a414a" stroke-width=".05" fill="#3a414a"/><use xlink:href="#j" transform="matrix(1,0,0,1,731.1928297555744,357.10539215686276) translate(0 14.222222222222223)"/><use xlink:href="#k" transform="matrix(1,0,0,1,731.1928297555744,357.10539215686276) translate(51.308641975308646 14.222222222222223)"/><use xlink:href="#l" transform="matrix(1,0,0,1,731.1928297555744,357.10539215686276) translate(128.69135802469137 14.222222222222223)"/><path d="M1122 405.76c0 5.27-40.74 9.53-91 9.53s-91-4.27-91-9.54v-76.23c0-5.26 40.74-9.53 91-9.53s91 4.27 91 9.53z" stroke="#3a414a" fill="#fff"/><path d="M1122 329.53c0 5.26-40.74 9.53-91 9.53s-91-4.27-91-9.53" stroke="#3a414a" fill="none"/><use xlink:href="#a" transform="matrix(1,0,0,1,945,344.05882352941177) translate(10.629629629629633 24.05902777777778)"/><use xlink:href="#m" transform="matrix(1,0,0,1,945,344.05882352941177) translate(106 24.05902777777778)"/><use xlink:href="#n" transform="matrix(1,0,0,1,945,344.05882352941177) translate(20.660493827160494 50.72569444444445)"/><use xlink:href="#h" transform="matrix(1,0,0,1,945,344.05882352941177) translate(75.53703703703704 50.72569444444445)"/><use xlink:href="#o" transform="matrix(1,0,0,1,945,344.05882352941177) translate(98.37654320987654 50.72569444444445)"/><path d="M1122 230.3c0 6.2-40.74 11.24-91 11.24s-91-5.03-91-11.25v-90c0-6.22 40.74-11.26 91-11.26s91 5.04 91 11.25z" stroke="#3a414a" fill="#fff"/><path d="M1122 140.3c0 6.2-40.74 11.24-91 11.24s-91-5.03-91-11.25" stroke="#3a414a" fill="none"/><use xlink:href="#p" transform="matrix(1,0,0,1,945,156.54411764705884) translate(49.7037037037037 20.27777777777778)"/><use xlink:href="#q" transform="matrix(1,0,0,1,945,156.54411764705884) translate(8.438271604938265 46.94444444444444)"/><use xlink:href="#r" transform="matrix(1,0,0,1,945,156.54411764705884) translate(53.9370987654321 73.61111111111111)"/><path d="M700.96 185.3h222.16" stroke="#3a414a" fill="none"/><path d="M700.98 185.8h-.52v-1h.52z" stroke="#3a414a" stroke-width=".05" fill="#3a414a"/><path d="M937.88 185.3l-14.26 4.63v-9.27z" stroke="#3a414a" fill="#3a414a"/><use xlink:href="#s" transform="matrix(1,0,0,1,794.8214860235983,159.96078431372558) translate(0 14.222222222222223)"/><path d="M440 167.23a6 6 0 0 1 6-6h248a6 6 0 0 1 6 6v36.13a6 6 0 0 1-6 6H446a6 6 0 0 1-6-6z" stroke="#3a414a" fill="#fff"/><use xlink:href="#t" transform="matrix(1,0,0,1,445,166.2273539168156) translate(2.037037037037038 25.09027777777778)"/><use xlink:href="#u" transform="matrix(1,0,0,1,445,166.2273539168156) translate(79.07407407407408 25.09027777777778)"/><use xlink:href="#v" transform="matrix(1,0,0,1,445,166.2273539168156) translate(143.82716049382717 25.09027777777778)"/><use xlink:href="#w" transform="matrix(1,0,0,1,445,166.2273539168156) translate(183.9506172839506 25.09027777777778)"/><path d="M440 446a6 6 0 0 1 6-6h248a6 6 0 0 1 6 6v36.13a6 6 0 0 1-6 6H446a6 6 0 0 1-6-6z" stroke="#3a414a" fill="#fff"/><g><use xlink:href="#x" transform="matrix(1,0,0,1,445,445) translate(63.148148148148145 25.09027777777778)"/><use xlink:href="#y" transform="matrix(1,0,0,1,445,445) translate(128.9506172839506 25.09027777777778)"/></g><path d="M440 349.83a6 6 0 0 1 6-6h248a6 6 0 0 1 6 6v36.13a6 6 0 0 1-6 6H446a6 6 0 0 1-6-6z" stroke="#3a414a" fill="#fff"/><g><use xlink:href="#z" transform="matrix(1,0,0,1,445,348.83029509328617) translate(12.592592592592581 25.09027777777778)"/><use xlink:href="#n" transform="matrix(1,0,0,1,445,348.83029509328617) translate(73.5185185185185 25.09027777777778)"/><use xlink:href="#e" transform="matrix(1,0,0,1,445,348.83029509328617) translate(128.39506172839504 25.09027777777778)"/><use xlink:href="#w" transform="matrix(1,0,0,1,445,348.83029509328617) translate(173.39506172839506 25.09027777777778)"/></g><path d="M440 246a6 6 0 0 1 6-6h248a6 6 0 0 1 6 6v36.13a6 6 0 0 1-6 6H446a6 6 0 0 1-6-6z" stroke="#3a414a" fill="#fff"/><g><use xlink:href="#A" transform="matrix(1,0,0,1,445,245) translate(60.03086419753086 25.09027777777778)"/><use xlink:href="#w" transform="matrix(1,0,0,1,445,245) translate(125.9567901234568 25.09027777777778)"/></g><path d="M1031 242.54v15.53a6 6 0 0 1-6 6H716.85" stroke="#3a414a" fill="none"/><path d="M1031 242.04h.5v.52h-1v-.53z" stroke="#3a414a" stroke-width=".05" fill="#3a414a"/><path d="M702.08 264.07l14.27-4.64v9.27z" stroke="#3a414a" fill="#3a414a"/><path d="M570 289.1v37.88" stroke="#3a414a" fill="none"/><path d="M570.5 289.1h-1v-.5h1z" stroke="#3a414a" stroke-width=".05" fill="#3a414a"/><path d="M570 341.75l-4.64-14.27h9.28z" stroke="#3a414a" fill="#3a414a"/><path d="M1031 416.3v41.77a6 6 0 0 1-6 6H716.85" stroke="#3a414a" fill="none"/><path d="M1031 415.8h.5v.5h-1v-.52z" stroke="#3a414a" stroke-width=".05" fill="#3a414a"/><path d="M702.08 464.07l14.27-4.64v9.27z" stroke="#3a414a" fill="#3a414a"/><defs><path fill="#3a414a" d="M52-115c0 90 69 126 140 93v-67l-30-5v-9h87v9l-23 5v77c-27 8-56 16-90 16C59 2 15-37 15-115c-1-82 41-123 122-123 31 0 59 4 83 10v51h-12l-5-29c-15-12-38-18-65-18-66-1-86 42-86 109" id="B"/><path fill="#3a414a" d="M84-170c49 0 66 33 63 87H46c-8 60 38 80 95 63v10C128-2 108 4 88 4 34 4 14-29 14-84c-1-54 22-86 70-86zm33 73c12-57-57-82-69-24-1 7-2 15-2 24h71" id="C"/><path fill="#3a414a" d="M90-170c52 0 76 32 76 87 0 54-24 87-77 87-51 0-75-34-75-87 0-54 24-87 76-87zM89-10c39 0 46-35 46-73 0-39-7-73-46-73-39 1-44 34-44 73s6 72 44 73" id="D"/><path fill="#3a414a" d="M65-12l28 4v8H7v-8l28-4v-226l-28-4v-8h58v238" id="E"/><path fill="#3a414a" d="M156-12c7 3 23-1 20 12h-75v-8l22-4-38-58-45 58 23 4v8H3v-8l19-3 55-71-48-71c-7-3-23 1-20-12h75v8l-22 4 32 48 37-48-23-4v-8h59v8l-19 3-46 60" id="F"/><path fill="#3a414a" d="M47-200c-23 0-25-39 0-38 13 0 18 7 20 19-1 11-8 19-20 19zM65-12l28 4v8H8v-8l28-4v-141l-24-4v-8h53v153" id="G"/><path fill="#3a414a" d="M45-84c0 64 52 80 104 63 1 25-30 25-55 25-56 0-80-32-80-88 0-76 62-98 131-80v46h-10c-5-15-4-31-23-35-47-10-67 21-67 69" id="H"/><path fill="#3a414a" d="M32-163c41-10 102-14 102 39v112c8 3 24-2 21 12h-45l-4-17C83 13 3 13 13-46c-2-50 45-50 92-51 4-36-5-70-42-56-6 2-12 4-16 6-4 7 0 23-15 20v-36zM42-47c0 41 41 33 63 22v-59c-34 1-63-1-63 37" id="I"/><g id="a"><use transform="matrix(0.06172839506172839,0,0,0.06172839506172839,0,0)" xlink:href="#B"/><use transform="matrix(0.06172839506172839,0,0,0.06172839506172839,15.987654320987653,0)" xlink:href="#C"/><use transform="matrix(0.06172839506172839,0,0,0.06172839506172839,25.80246913580247,0)" xlink:href="#D"/><use transform="matrix(0.06172839506172839,0,0,0.06172839506172839,36.91358024691358,0)" xlink:href="#E"/><use transform="matrix(0.06172839506172839,0,0,0.06172839506172839,43.086419753086425,0)" xlink:href="#C"/><use transform="matrix(0.06172839506172839,0,0,0.06172839506172839,52.90123456790124,0)" xlink:href="#F"/><use transform="matrix(0.06172839506172839,0,0,0.06172839506172839,64.01234567901236,0)" xlink:href="#G"/><use transform="matrix(0.06172839506172839,0,0,0.06172839506172839,70.18518518518519,0)" xlink:href="#H"/><use transform="matrix(0.06172839506172839,0,0,0.06172839506172839,80,0)" xlink:href="#I"/></g><path fill="#3a414a" d="M41-130c7 48 86 23 86 84 0 56-69 57-112 41v-40c20 0 9 29 31 31 35 19 77-26 41-50-27-18-72-13-72-59 0-50 58-52 100-41v36c-19 1-8-25-28-25-21-7-50-1-46 23" id="J"/><path fill="#3a414a" d="M54-38c-1 25 24 26 44 20v12C71 10 25 9 25-35v-115H4c-2-14 14-10 21-15l18-38h11v38h38v15H54v112" id="K"/><g id="b"><use transform="matrix(0.06172839506172839,0,0,0.06172839506172839,0,0)" xlink:href="#J"/><use transform="matrix(0.06172839506172839,0,0,0.06172839506172839,8.641975308641975,0)" xlink:href="#K"/><use transform="matrix(0.06172839506172839,0,0,0.06172839506172839,14.814814814814813,0)" xlink:href="#I"/><use transform="matrix(0.06172839506172839,0,0,0.06172839506172839,24.629629629629626,0)" xlink:href="#K"/><use transform="matrix(0.06172839506172839,0,0,0.06172839506172839,30.802469135802465,0)" xlink:href="#G"/><use transform="matrix(0.06172839506172839,0,0,0.06172839506172839,36.9753086419753,0)" xlink:href="#H"/></g><g id="c"><use transform="matrix(0.06172839506172839,0,0,0.06172839506172839,0,0)" xlink:href="#J"/><use transform="matrix(0.06172839506172839,0,0,0.06172839506172839,8.641975308641975,0)" xlink:href="#G"/><use transform="matrix(0.06172839506172839,0,0,0.06172839506172839,14.814814814814813,0)" xlink:href="#K"/><use transform="matrix(0.06172839506172839,0,0,0.06172839506172839,20.98765432098765,0)" xlink:href="#C"/></g><path fill="#3a414a" d="M57-145c16-10 35-24 60-25v45c-19 1-8-30-40-17l-20 6v124l29 4v8H7v-8l21-4v-141c-8-3-24 2-21-12h48" id="L"/><path fill="#3a414a" d="M164-154L98 4H85L17-153c-7-3-20 0-17-12h77v8l-26 4L99-38l46-115-26-4v-8h61v8" id="M"/><g id="d"><use transform="matrix(0.06172839506172839,0,0,0.06172839506172839,0,0)" xlink:href="#J"/><use transform="matrix(0.06172839506172839,0,0,0.06172839506172839,8.641975308641975,0)" xlink:href="#C"/><use transform="matrix(0.06172839506172839,0,0,0.06172839506172839,18.45679012345679,0)" xlink:href="#L"/><use transform="matrix(0.06172839506172839,0,0,0.06172839506172839,25.80246913580247,0)" xlink:href="#M"/><use transform="matrix(0.06172839506172839,0,0,0.06172839506172839,36.91358024691358,0)" xlink:href="#C"/><use transform="matrix(0.06172839506172839,0,0,0.06172839506172839,46.7283950617284,0)" xlink:href="#L"/></g><path fill="#3a414a" d="M240-154L185 4h-14l-41-109L90 4H77L20-153c-7-3-23 1-20-12h79v8l-27 4L91-41l40-108h14l40 109 38-113-28-4v-8h63v8" id="N"/><path fill="#3a414a" d="M126-119c3-38-42-31-69-25v132l23 4v8H7v-8l21-4v-226l-24-4v-8h53l-1 98c31-22 99-31 99 31v109c7 3 23-1 20 12h-71v-8l22-4v-107" id="O"/><g id="e"><use transform="matrix(0.06172839506172839,0,0,0.06172839506172839,0,0)" xlink:href="#N"/><use transform="matrix(0.06172839506172839,0,0,0.06172839506172839,15.987654320987653,0)" xlink:href="#G"/><use transform="matrix(0.06172839506172839,0,0,0.06172839506172839,22.160493827160494,0)" xlink:href="#K"/><use transform="matrix(0.06172839506172839,0,0,0.06172839506172839,28.333333333333332,0)" xlink:href="#O"/></g><path fill="#3a414a" d="M75-131c50 2 93 3 93-48 0-46-48-41-93-41v89zm0 115c55 4 111 6 111-51 0-53-58-48-111-48v99zm148-52C223 24 102-3 10 0v-9l31-5v-208l-31-4v-10c77 6 193-24 194 56 0 33-20 48-48 54 36 5 67 20 67 58" id="P"/><g id="f"><use transform="matrix(0.06172839506172839,0,0,0.06172839506172839,0,0)" xlink:href="#P"/><use transform="matrix(0.06172839506172839,0,0,0.06172839506172839,14.814814814814813,0)" xlink:href="#L"/><use transform="matrix(0.06172839506172839,0,0,0.06172839506172839,22.160493827160494,0)" xlink:href="#C"/><use transform="matrix(0.06172839506172839,0,0,0.06172839506172839,31.975308641975307,0)" xlink:href="#M"/><use transform="matrix(0.06172839506172839,0,0,0.06172839506172839,43.08641975308642,0)" xlink:href="#G"/><use transform="matrix(0.06172839506172839,0,0,0.06172839506172839,49.25925925925926,0)" xlink:href="#K"/><use transform="matrix(0.06172839506172839,0,0,0.06172839506172839,55.4320987654321,0)" xlink:href="#C"/><use transform="matrix(0.06172839506172839,0,0,0.06172839506172839,65.24691358024691,0)" xlink:href="#L"/></g><g id="g"><use transform="matrix(0.06172839506172839,0,0,0.06172839506172839,0,0)" xlink:href="#P"/><use transform="matrix(0.06172839506172839,0,0,0.06172839506172839,14.814814814814813,0)" xlink:href="#L"/><use transform="matrix(0.06172839506172839,0,0,0.06172839506172839,22.160493827160494,0)" xlink:href="#C"/><use transform="matrix(0.06172839506172839,0,0,0.06172839506172839,31.975308641975307,0)" xlink:href="#M"/><use transform="matrix(0.06172839506172839,0,0,0.06172839506172839,43.08641975308642,0)" xlink:href="#G"/><use transform="matrix(0.06172839506172839,0,0,0.06172839506172839,49.25925925925926,0)" xlink:href="#K"/><use transform="matrix(0.06172839506172839,0,0,0.06172839506172839,55.4320987654321,0)" xlink:href="#C"/><use transform="matrix(0.06172839506172839,0,0,0.06172839506172839,65.24691358024691,0)" xlink:href="#L"/></g><path fill="#3a414a" d="M125-118c4-37-41-34-68-26v132l23 4v8H8C5-13 21-9 28-12v-141c-7-3-23 1-20-12h47l2 13c31-23 98-29 98 31v109c7 3 23-1 20 12h-72v-8l22-4v-106" id="Q"/><g id="h"><use transform="matrix(0.06172839506172839,0,0,0.06172839506172839,0,0)" xlink:href="#G"/><use transform="matrix(0.06172839506172839,0,0,0.06172839506172839,6.172839506172839,0)" xlink:href="#Q"/></g><path fill="#3a414a" d="M53-14c58 12 82-15 82-73 0-52-35-77-82-58v131zM89 4C64 4 42-2 24-9v-229l-24-4v-8h53l-1 94c48-33 114-4 114 69 0 57-23 91-77 91" id="R"/><g id="i"><use transform="matrix(0.06172839506172839,0,0,0.06172839506172839,0,0)" xlink:href="#R"/><use transform="matrix(0.06172839506172839,0,0,0.06172839506172839,11.11111111111111,0)" xlink:href="#L"/><use transform="matrix(0.06172839506172839,0,0,0.06172839506172839,18.45679012345679,0)" xlink:href="#D"/><use transform="matrix(0.06172839506172839,0,0,0.06172839506172839,29.567901234567902,0)" xlink:href="#N"/><use transform="matrix(0.06172839506172839,0,0,0.06172839506172839,45.55555555555556,0)" xlink:href="#J"/><use transform="matrix(0.06172839506172839,0,0,0.06172839506172839,54.19753086419753,0)" xlink:href="#C"/><use transform="matrix(0.06172839506172839,0,0,0.06172839506172839,64.01234567901234,0)" xlink:href="#L"/></g><path fill="#333" d="M168-150L102 4H81L12-149c-7-2-15-4-12-16h85v11l-20 5 42 94 38-94-19-5v-11h54v11" id="S"/><path fill="#333" d="M12-83c0-55 22-85 75-86 52-1 66 33 63 88H64c-1 37 6 64 44 63 14 0 28-4 39-6 3 28-28 25-55 27-57 4-80-31-80-86zm90-17c2-26 0-63-27-48-10 9-11 28-11 48h38" id="T"/><path fill="#333" d="M109-18c15 0 31-2 42-6v14c-11 9-31 13-51 13-59 0-86-28-88-86-3-75 66-101 135-80v48h-13c-3-20-7-40-34-37-51 7-55 138 9 134" id="U"/><path fill="#333" d="M78-41c-2 24 21 26 40 20C122 3 98 2 77 4 5 10 32-84 27-147H6v-11l25-7 21-38h26v38h35v18H78v106" id="V"/><path fill="#333" d="M90-170c54-1 76 32 76 87 1 56-23 87-77 87-53 0-75-32-75-87s23-86 76-87zM89-14c28-2 26-38 26-69s3-69-26-69c-27 0-24 39-24 69s-3 66 24 69" id="W"/><path fill="#333" d="M132-132c-21 0-37 9-50 16v100l26 4V0H10v-12l21-4v-133l-21-5v-11h69l2 34c17-18 35-41 71-40v61c-17 3-14-14-20-22" id="X"/><g id="j"><use transform="matrix(0.04938271604938272,0,0,0.04938271604938272,0,0)" xlink:href="#S"/><use transform="matrix(0.04938271604938272,0,0,0.04938271604938272,8.88888888888889,0)" xlink:href="#T"/><use transform="matrix(0.04938271604938272,0,0,0.04938271604938272,16.74074074074074,0)" xlink:href="#U"/><use transform="matrix(0.04938271604938272,0,0,0.04938271604938272,24.59259259259259,0)" xlink:href="#V"/><use transform="matrix(0.04938271604938272,0,0,0.04938271604938272,30.46913580246914,0)" xlink:href="#W"/><use transform="matrix(0.04938271604938272,0,0,0.04938271604938272,39.358024691358025,0)" xlink:href="#X"/></g><path fill="#333" d="M102-142c-14-17-68-15-54 18 24 26 83 17 83 72 0 62-72 62-120 47v-45h12c4 23 16 37 43 37 35 0 39-37 9-46-31-9-65-19-64-61 0-52 59-55 108-45v43h-11" id="Y"/><path fill="#333" d="M77-16l18 4V0H8v-12l18-4v-133l-17-5v-11h68v149zM51-196c-16 0-27-10-27-27s10-27 27-27 27 11 27 27c0 17-10 27-27 27" id="Z"/><path fill="#333" d="M126-114c3-31-27-37-49-25v123l15 4V0H10v-12l16-4v-133l-16-5v-11h64l2 14c24-16 81-33 96 3 30-24 105-39 105 27v105l17 4V0h-82v-12l14-4v-98c4-33-27-37-51-24 5 35 0 82 2 122l17 4V0h-83v-12l15-4v-98" id="aa"/><path fill="#333" d="M76-16l18 4V0H7v-12l18-4v-218l-17-4v-12h68v234" id="ab"/><path fill="#333" d="M31-163c51-5 127-20 127 40v107l17 4V0h-61l-4-13C82 13 12 12 12-46c0-51 46-52 95-53 9-45-22-69-57-44l-7 20H31v-40zM62-47c0 30 26 34 45 23v-59c-28 0-45 6-45 36" id="ac"/><path fill="#333" d="M81 5L15-149c-7-2-13-5-11-16h84v11l-20 5 39 91 35-91-19-5v-11h53c2 11-4 13-11 15C134-81 111-5 75 58 65 77 34 83 8 74V32h11c0 24 29 35 43 12 7-11 13-25 19-39" id="ad"/><g id="k"><use transform="matrix(0.04938271604938272,0,0,0.04938271604938272,0,0)" xlink:href="#Y"/><use transform="matrix(0.04938271604938272,0,0,0.04938271604938272,6.913580246913581,0)" xlink:href="#Z"/><use transform="matrix(0.04938271604938272,0,0,0.04938271604938272,11.851851851851853,0)" xlink:href="#aa"/><use transform="matrix(0.04938271604938272,0,0,0.04938271604938272,26.617283950617285,0)" xlink:href="#Z"/><use transform="matrix(0.04938271604938272,0,0,0.04938271604938272,31.555555555555557,0)" xlink:href="#ab"/><use transform="matrix(0.04938271604938272,0,0,0.04938271604938272,36.49382716049383,0)" xlink:href="#ac"/><use transform="matrix(0.04938271604938272,0,0,0.04938271604938272,45.38271604938272,0)" xlink:href="#X"/><use transform="matrix(0.04938271604938272,0,0,0.04938271604938272,53.23456790123457,0)" xlink:href="#Z"/><use transform="matrix(0.04938271604938272,0,0,0.04938271604938272,58.17283950617284,0)" xlink:href="#V"/><use transform="matrix(0.04938271604938272,0,0,0.04938271604938272,64.0493827160494,0)" xlink:href="#ad"/></g><path fill="#333" d="M127-114c3-31-26-38-50-25v123l15 4V0H10v-12l16-4v-218l-17-4v-12h68l-1 99c31-23 102-32 102 30v105l17 4V0h-82v-12l14-4v-98" id="ae"/><g id="l"><use transform="matrix(0.04938271604938272,0,0,0.04938271604938272,0,0)" xlink:href="#Y"/><use transform="matrix(0.04938271604938272,0,0,0.04938271604938272,6.913580246913581,0)" xlink:href="#T"/><use transform="matrix(0.04938271604938272,0,0,0.04938271604938272,14.765432098765434,0)" xlink:href="#ac"/><use transform="matrix(0.04938271604938272,0,0,0.04938271604938272,23.654320987654323,0)" xlink:href="#X"/><use transform="matrix(0.04938271604938272,0,0,0.04938271604938272,31.16049382716049,0)" xlink:href="#U"/><use transform="matrix(0.04938271604938272,0,0,0.04938271604938272,39.01234567901235,0)" xlink:href="#ae"/></g><g id="m"><use transform="matrix(0.06172839506172839,0,0,0.06172839506172839,0,0)" xlink:href="#M"/><use transform="matrix(0.06172839506172839,0,0,0.06172839506172839,11.11111111111111,0)" xlink:href="#C"/><use transform="matrix(0.06172839506172839,0,0,0.06172839506172839,20.925925925925924,0)" xlink:href="#H"/><use transform="matrix(0.06172839506172839,0,0,0.06172839506172839,30.74074074074074,0)" xlink:href="#K"/><use transform="matrix(0.06172839506172839,0,0,0.06172839506172839,36.91358024691358,0)" xlink:href="#D"/><use transform="matrix(0.06172839506172839,0,0,0.06172839506172839,48.0246913580247,0)" xlink:href="#L"/></g><path fill="#3a414a" d="M13-81c0-71 46-101 114-85l-1-72-28-4v-8h57v238c8 3 24-2 21 12h-47l-2-12C80 23 13-1 13-81zm77-74c-37 1-44 33-45 74 0 38 9 66 45 66 14 0 27-3 36-7v-130c-10-1-24-3-36-3" id="af"/><g id="n"><use transform="matrix(0.06172839506172839,0,0,0.06172839506172839,0,0)" xlink:href="#G"/><use transform="matrix(0.06172839506172839,0,0,0.06172839506172839,6.172839506172839,0)" xlink:href="#Q"/><use transform="matrix(0.06172839506172839,0,0,0.06172839506172839,17.28395061728395,0)" xlink:href="#af"/><use transform="matrix(0.06172839506172839,0,0,0.06172839506172839,28.39506172839506,0)" xlink:href="#C"/><use transform="matrix(0.06172839506172839,0,0,0.06172839506172839,38.20987654320987,0)" xlink:href="#F"/></g><path fill="#3a414a" d="M106-76c4 61-43 93-98 74v-43h11c2 18 5 33 28 33 16 0 25-11 25-33v-177l-30-4v-10h91v10l-27 4v146" id="ag"/><path fill="#3a414a" d="M178-68c0 79-95 82-154 59v-54h12c1 35 22 52 60 52 50 0 69-58 33-82-39-24-105-21-105-85 0-67 86-66 142-53v49h-12l-6-29c-31-27-121-7-89 42 28 43 119 24 119 101" id="ah"/><path fill="#3a414a" d="M130-224c-62 0-78 43-78 106 0 64 16 108 78 108s78-45 78-108-16-106-78-106zm0 228C53 4 15-39 15-118c-1-80 37-120 115-120s115 42 115 120C245-39 207 4 130 4" id="ai"/><path fill="#3a414a" d="M203-222l-32-4v-10h81v10l-31 4V0h-17L59-212v198l32 5v9H10v-9l31-5v-208l-31-4v-10h72L203-61v-161" id="aj"/><g id="o"><use transform="matrix(0.06172839506172839,0,0,0.06172839506172839,0,0)" xlink:href="#ag"/><use transform="matrix(0.06172839506172839,0,0,0.06172839506172839,8.641975308641975,0)" xlink:href="#ah"/><use transform="matrix(0.06172839506172839,0,0,0.06172839506172839,20.98765432098765,0)" xlink:href="#ai"/><use transform="matrix(0.06172839506172839,0,0,0.06172839506172839,36.9753086419753,0)" xlink:href="#aj"/></g><g id="p"><use transform="matrix(0.06172839506172839,0,0,0.06172839506172839,0,0)" xlink:href="#P"/><use transform="matrix(0.06172839506172839,0,0,0.06172839506172839,14.814814814814813,0)" xlink:href="#L"/><use transform="matrix(0.06172839506172839,0,0,0.06172839506172839,22.160493827160494,0)" xlink:href="#C"/><use transform="matrix(0.06172839506172839,0,0,0.06172839506172839,31.975308641975307,0)" xlink:href="#M"/><use transform="matrix(0.06172839506172839,0,0,0.06172839506172839,43.08641975308642,0)" xlink:href="#G"/><use transform="matrix(0.06172839506172839,0,0,0.06172839506172839,49.25925925925926,0)" xlink:href="#K"/><use transform="matrix(0.06172839506172839,0,0,0.06172839506172839,55.4320987654321,0)" xlink:href="#C"/><use transform="matrix(0.06172839506172839,0,0,0.06172839506172839,65.24691358024691,0)" xlink:href="#L"/></g><path fill="#3a414a" d="M126-118c4-37-42-32-68-25v131l24 4v8H8C5-13 21-9 28-12v-141c-7-3-23 1-20-12h48l1 13c22-15 77-30 92 2 32-22 104-36 104 29v109c8 3 24-2 21 12h-75v-8l25-4v-106c3-39-45-31-72-24 7 37 1 88 3 130l25 4v8h-78v-8l24-4v-106" id="ak"/><path fill="#3a414a" d="M13-71v-27h94v27H13" id="al"/><path fill="#3a414a" d="M141-152c28 39 5 97-54 97-9 0-20-2-27-3L49-35c29 22 130-14 124 52-4 45-38 57-88 61C21 83-8 26 45-2 33-6 22-15 21-31l28-31c-19-9-28-26-28-51-2-51 53-65 100-52l38-20 7 8zM85 64c35 0 61-11 61-42 0-35-57-17-89-21-9 8-16 19-17 34 0 25 19 29 45 29zM52-113c1 26 7 46 35 44 28-1 34-16 35-44 0-26-6-43-34-43s-36 17-36 43" id="am"/><g id="q"><use transform="matrix(0.06172839506172839,0,0,0.06172839506172839,0,0)" xlink:href="#ak"/><use transform="matrix(0.06172839506172839,0,0,0.06172839506172839,17.28395061728395,0)" xlink:href="#I"/><use transform="matrix(0.06172839506172839,0,0,0.06172839506172839,27.098765432098766,0)" xlink:href="#H"/><use transform="matrix(0.06172839506172839,0,0,0.06172839506172839,36.91358024691358,0)" xlink:href="#O"/><use transform="matrix(0.06172839506172839,0,0,0.06172839506172839,48.0246913580247,0)" xlink:href="#G"/><use transform="matrix(0.06172839506172839,0,0,0.06172839506172839,54.19753086419754,0)" xlink:href="#Q"/><use transform="matrix(0.06172839506172839,0,0,0.06172839506172839,65.30864197530865,0)" xlink:href="#C"/><use transform="matrix(0.06172839506172839,0,0,0.06172839506172839,75.12345679012346,0)" xlink:href="#al"/><use transform="matrix(0.06172839506172839,0,0,0.06172839506172839,82.46913580246914,0)" xlink:href="#E"/><use transform="matrix(0.06172839506172839,0,0,0.06172839506172839,88.64197530864197,0)" xlink:href="#C"/><use transform="matrix(0.06172839506172839,0,0,0.06172839506172839,98.45679012345678,0)" xlink:href="#I"/><use transform="matrix(0.06172839506172839,0,0,0.06172839506172839,108.2716049382716,0)" xlink:href="#L"/><use transform="matrix(0.06172839506172839,0,0,0.06172839506172839,115.61728395061728,0)" xlink:href="#Q"/><use transform="matrix(0.06172839506172839,0,0,0.06172839506172839,126.72839506172839,0)" xlink:href="#G"/><use transform="matrix(0.06172839506172839,0,0,0.06172839506172839,132.90123456790124,0)" xlink:href="#Q"/><use transform="matrix(0.06172839506172839,0,0,0.06172839506172839,144.01234567901236,0)" xlink:href="#am"/></g><g id="r"><use transform="matrix(0.06172839506172839,0,0,0.06172839506172839,0,0)" xlink:href="#ak"/><use transform="matrix(0.06172839506172839,0,0,0.06172839506172839,17.28395061728395,0)" xlink:href="#D"/><use transform="matrix(0.06172839506172839,0,0,0.06172839506172839,28.39506172839506,0)" xlink:href="#af"/><use transform="matrix(0.06172839506172839,0,0,0.06172839506172839,39.50617283950617,0)" xlink:href="#C"/><use transform="matrix(0.06172839506172839,0,0,0.06172839506172839,49.32098765432099,0)" xlink:href="#E"/><use transform="matrix(0.06172839506172839,0,0,0.06172839506172839,55.49382716049383,0)" xlink:href="#J"/></g><path fill="#333" d="M127-114c3-31-26-38-50-25v123l15 4V0H10v-12l16-4v-133l-16-5v-11h64l2 14c31-23 102-32 102 30v105l17 4V0h-82v-12l14-4v-98" id="an"/><path fill="#333" d="M77-79l64-71-17-4v-11h63v11c-32 3-40 30-59 46l57 92 15 4V0h-80c-2-11 3-15 10-16L97-74 77-60v44l16 4V0H10v-12l16-4v-218l-17-4v-12h68v171" id="ao"/><g id="s"><use transform="matrix(0.04938271604938272,0,0,0.04938271604938272,0,0)" xlink:href="#Z"/><use transform="matrix(0.04938271604938272,0,0,0.04938271604938272,4.938271604938272,0)" xlink:href="#an"/><use transform="matrix(0.04938271604938272,0,0,0.04938271604938272,14.814814814814817,0)" xlink:href="#S"/><use transform="matrix(0.04938271604938272,0,0,0.04938271604938272,23.703703703703706,0)" xlink:href="#W"/><use transform="matrix(0.04938271604938272,0,0,0.04938271604938272,32.592592592592595,0)" xlink:href="#ao"/><use transform="matrix(0.04938271604938272,0,0,0.04938271604938272,42.46913580246914,0)" xlink:href="#T"/></g><path fill="#3a414a" d="M52-115c0 93 80 130 150 87l7-35h11l-1 55c-23 7-52 12-83 12C60 4 19-37 15-115c-5-113 97-141 201-114l1 51h-12l-5-30c-15-9-39-16-62-16-66 0-86 41-86 109" id="ap"/><g id="t"><use transform="matrix(0.06172839506172839,0,0,0.06172839506172839,0,0)" xlink:href="#ap"/><use transform="matrix(0.06172839506172839,0,0,0.06172839506172839,14.814814814814813,0)" xlink:href="#D"/><use transform="matrix(0.06172839506172839,0,0,0.06172839506172839,25.925925925925924,0)" xlink:href="#Q"/><use transform="matrix(0.06172839506172839,0,0,0.06172839506172839,37.03703703703704,0)" xlink:href="#M"/><use transform="matrix(0.06172839506172839,0,0,0.06172839506172839,48.14814814814815,0)" xlink:href="#C"/><use transform="matrix(0.06172839506172839,0,0,0.06172839506172839,57.96296296296297,0)" xlink:href="#L"/><use transform="matrix(0.06172839506172839,0,0,0.06172839506172839,65.30864197530865,0)" xlink:href="#K"/></g><g id="u"><use transform="matrix(0.06172839506172839,0,0,0.06172839506172839,0,0)" xlink:href="#J"/><use transform="matrix(0.06172839506172839,0,0,0.06172839506172839,8.641975308641975,0)" xlink:href="#K"/><use transform="matrix(0.06172839506172839,0,0,0.06172839506172839,14.814814814814813,0)" xlink:href="#L"/><use transform="matrix(0.06172839506172839,0,0,0.06172839506172839,22.160493827160494,0)" xlink:href="#G"/><use transform="matrix(0.06172839506172839,0,0,0.06172839506172839,28.333333333333332,0)" xlink:href="#Q"/><use transform="matrix(0.06172839506172839,0,0,0.06172839506172839,39.44444444444444,0)" xlink:href="#am"/><use transform="matrix(0.06172839506172839,0,0,0.06172839506172839,50.55555555555556,0)" xlink:href="#J"/></g><g id="v"><use transform="matrix(0.06172839506172839,0,0,0.06172839506172839,0,0)" xlink:href="#G"/><use transform="matrix(0.06172839506172839,0,0,0.06172839506172839,6.172839506172839,0)" xlink:href="#Q"/><use transform="matrix(0.06172839506172839,0,0,0.06172839506172839,17.28395061728395,0)" xlink:href="#K"/><use transform="matrix(0.06172839506172839,0,0,0.06172839506172839,23.456790123456788,0)" xlink:href="#D"/></g><g id="w"><use transform="matrix(0.06172839506172839,0,0,0.06172839506172839,0,0)" xlink:href="#M"/><use transform="matrix(0.06172839506172839,0,0,0.06172839506172839,11.11111111111111,0)" xlink:href="#C"/><use transform="matrix(0.06172839506172839,0,0,0.06172839506172839,20.925925925925924,0)" xlink:href="#H"/><use transform="matrix(0.06172839506172839,0,0,0.06172839506172839,30.74074074074074,0)" xlink:href="#K"/><use transform="matrix(0.06172839506172839,0,0,0.06172839506172839,36.91358024691358,0)" xlink:href="#D"/><use transform="matrix(0.06172839506172839,0,0,0.06172839506172839,48.0246913580247,0)" xlink:href="#L"/><use transform="matrix(0.06172839506172839,0,0,0.06172839506172839,55.370370370370374,0)" xlink:href="#J"/></g><g id="x"><use transform="matrix(0.06172839506172839,0,0,0.06172839506172839,0,0)" xlink:href="#ah"/><use transform="matrix(0.06172839506172839,0,0,0.06172839506172839,12.345679012345679,0)" xlink:href="#C"/><use transform="matrix(0.06172839506172839,0,0,0.06172839506172839,22.160493827160494,0)" xlink:href="#I"/><use transform="matrix(0.06172839506172839,0,0,0.06172839506172839,31.975308641975307,0)" xlink:href="#L"/><use transform="matrix(0.06172839506172839,0,0,0.06172839506172839,39.32098765432099,0)" xlink:href="#H"/><use transform="matrix(0.06172839506172839,0,0,0.06172839506172839,49.135802469135804,0)" xlink:href="#O"/></g><path fill="#3a414a" d="M124-13C89 8 26 15 26-45v-108c-8-3-24 2-21-12h50v118c-3 37 42 32 69 25v-131l-25-4v-8h54v153c8 3 24-2 21 12h-48" id="aq"/><g id="y"><use transform="matrix(0.06172839506172839,0,0,0.06172839506172839,0,0)" xlink:href="#L"/><use transform="matrix(0.06172839506172839,0,0,0.06172839506172839,7.345679012345679,0)" xlink:href="#C"/><use transform="matrix(0.06172839506172839,0,0,0.06172839506172839,17.160493827160494,0)" xlink:href="#J"/><use transform="matrix(0.06172839506172839,0,0,0.06172839506172839,25.80246913580247,0)" xlink:href="#aq"/><use transform="matrix(0.06172839506172839,0,0,0.06172839506172839,36.91358024691358,0)" xlink:href="#E"/><use transform="matrix(0.06172839506172839,0,0,0.06172839506172839,43.086419753086425,0)" xlink:href="#K"/><use transform="matrix(0.06172839506172839,0,0,0.06172839506172839,49.25925925925927,0)" xlink:href="#J"/></g><path fill="#3a414a" d="M130-224c-62 0-78 43-78 106 0 64 16 108 78 108s78-44 78-108c0-63-16-106-78-106zM145 3C61 9 15-34 15-118c0-80 37-120 115-120 77 0 115 42 115 120 1 59-21 95-62 112 19 19 30 53 71 46v12c-30 12-67 2-84-19" id="ar"/><path fill="#3a414a" d="M161-154L85 37C75 66 49 86 8 75V39c18-2 6 24 29 21 30-4 38-32 47-58L21-153c-7-3-20 0-17-12h77v8l-26 4 45 116 43-116-26-4v-8h62v8" id="as"/><g id="z"><use transform="matrix(0.06172839506172839,0,0,0.06172839506172839,0,0)" xlink:href="#ar"/><use transform="matrix(0.06172839506172839,0,0,0.06172839506172839,15.987654320987653,0)" xlink:href="#aq"/><use transform="matrix(0.06172839506172839,0,0,0.06172839506172839,27.098765432098766,0)" xlink:href="#C"/><use transform="matrix(0.06172839506172839,0,0,0.06172839506172839,36.91358024691358,0)" xlink:href="#L"/><use transform="matrix(0.06172839506172839,0,0,0.06172839506172839,44.25925925925926,0)" xlink:href="#as"/></g><g id="A"><use transform="matrix(0.06172839506172839,0,0,0.06172839506172839,0,0)" xlink:href="#ai"/><use transform="matrix(0.06172839506172839,0,0,0.06172839506172839,15.987654320987653,0)" xlink:href="#R"/><use transform="matrix(0.06172839506172839,0,0,0.06172839506172839,27.098765432098766,0)" xlink:href="#K"/><use transform="matrix(0.06172839506172839,0,0,0.06172839506172839,33.27160493827161,0)" xlink:href="#I"/><use transform="matrix(0.06172839506172839,0,0,0.06172839506172839,43.086419753086425,0)" xlink:href="#G"/><use transform="matrix(0.06172839506172839,0,0,0.06172839506172839,49.25925925925927,0)" xlink:href="#Q"/></g></defs></g></svg>