<svg xmlns="http://www.w3.org/2000/svg" xmlns:xlink="http://www.w3.org/1999/xlink" xmlns:lucid="lucid" width="860" height="320"><g transform="translate(-320 -220)" lucid:page-tab-id="0_0"><path d="M750 326a6 6 0 0 1 6-6h398a6 6 0 0 1 6 6v188a6 6 0 0 1-6 6H756a6 6 0 0 1-6-6z" fill="#edf5ff"/><path d="M753.08 320.78l.2-.13.87-.36.9-.23h2m4 0h3.98m4 0H773m4 0h4m3.98 0h4m3.98 0h4m3.98 0h4m3.98 0h4m3.98 0h4m3.98 0h4m3.97 0h4m3.98 0h4m3.98 0h4m4 0l3.98-.02m4 0h3.98m4 0h3.98m4 0h3.98m4 0h3.98m3.98 0h4m3.98 0h4m3.98 0h4m3.98 0h4m3.98 0h4m3.98 0h4m3.98 0h4m3.98 0h4m3.97 0h4m4-.02h3.98m4 0h3.98m4 0h3.98m4 0h3.98m4 0h3.98m4 0h3.98m4 0h3.98m3.98 0h4m3.98 0h4m3.98 0h4m3.98 0h4m3.98 0h4m3.98 0h4m3.98 0l4-.02m3.98 0h4m3.98 0h3.98m4 0h3.98m4 0h3.98m4 0h3.98m4 0h3.98m4 0h3.98m4 0h3.98m4 0h3.98m4 0h1.98l.94.07.9.22.23.08m3.15 2.7l.13.2.36.87.23.9v1.98m0 3.94v3.93m0 3.94v3.93m0 3.94v3.95m0 3.93v3.94m0 3.94v3.93m0 3.93l.02 3.93m0 3.94v3.94m0 3.93V390m0 3.95v3.93m0 3.94v3.93m0 3.94v3.93m0 3.93v3.94m.02 3.94v3.93m0 3.94v3.94m0 3.94v3.94m0 3.93V453m0 3.92v3.94m0 3.94v3.93m0 3.94l.02 3.94m0 3.94v3.94m0 3.93v3.95m0 3.94v3.92m0 3.94v3.94m0 3.93V514l-.07.94-.22.9-.08.23m-2.7 3.15l-.2.13-.87.36-.9.23h-2m-4 0h-3.98m-4 0H1137m-4 0h-4m-3.98 0h-4m-3.98 0h-4m-3.98 0h-4m-3.98 0h-4m-3.98 0h-4m-3.98 0h-4m-3.97 0h-4m-3.98 0h-4m-3.98 0h-4m-4 0l-3.98.02m-4 0h-3.98m-4 0h-3.98m-4 0h-3.98m-4 0h-3.98m-3.98 0h-4m-3.98 0h-4m-3.98 0h-4m-3.98 0h-4m-3.98 0h-4m-3.98 0h-4m-3.98 0h-4m-3.98 0h-4m-3.97 0h-4m-4 .02h-3.98m-4 0h-3.98m-4 0h-3.98m-4 0h-3.98m-4 0h-3.98m-4 0h-3.98m-4 0h-3.98m-3.98 0h-4m-3.98 0h-4m-3.98 0h-4m-3.98 0h-4m-3.98 0h-4m-3.98 0h-4m-3.98 0l-4 .02m-3.98 0h-4m-3.98 0h-3.98m-4 0h-3.98m-4 0h-3.98m-4 0h-3.98m-4 0h-3.98m-4 0h-3.98m-4 0h-3.98m-4 0H762m-4 0H756l-.94-.07-.9-.22-.23-.08m-3.15-2.7l-.13-.2-.36-.87-.23-.9v-1.98m0-3.94v-3.93m0-3.94v-3.93m0-3.94v-3.95m0-3.93v-3.94m0-3.94v-3.93m0-3.93l-.02-3.93m0-3.94v-3.94m0-3.93V450m0-3.95v-3.93m0-3.94v-3.93m0-3.94v-3.93m0-3.93v-3.94m-.02-3.94v-3.93m0-3.94v-3.94m0-3.94v-3.94m0-3.93V387m0-3.92v-3.94m0-3.94v-3.93m0-3.94l-.02-3.94m0-3.94v-3.94m0-3.93v-3.95m0-3.94v-3.92m0-3.94v-3.94m0-3.93V326l.07-.94.22-.9.08-.23" stroke="#3a414a" fill="none"/><use xlink:href="#a" transform="matrix(1,0,0,1,755,325) translate(162.46913580246914 17.77777777777778)"/><path d="M340 326a6 6 0 0 1 6-6h398a6 6 0 0 1 6 6v188a6 6 0 0 1-6 6H346a6 6 0 0 1-6-6z" fill="#d7faf5"/><path d="M343.08 320.78l.2-.13.87-.36.9-.23h2m4 0h3.98m4 0H363m4 0h4m3.98 0h4m3.98 0h4m3.98 0h4m3.98 0h4m3.98 0h4m3.98 0h4m3.97 0h4m3.98 0h4m3.98 0h4m4 0l3.98-.02m4 0h3.98m4 0h3.98m4 0h3.98m4 0h3.98m3.98 0h4m3.98 0h4m3.98 0h4m3.98 0h4m3.98 0h4m3.98 0h4m3.98 0h4m3.98 0h4m3.97 0h4m4-.02h3.98m4 0h3.98m4 0h3.98m4 0h3.98m4 0h3.98m4 0h3.98m4 0h3.98m3.98 0h4m3.98 0h4m3.98 0h4m3.98 0h4m3.98 0h4m3.98 0h4m3.98 0l4-.02m3.98 0h4m3.98 0h3.98m4 0h3.98m4 0h3.98m4 0h3.98m4 0h3.98m4 0h3.98m4 0h3.98m4 0H738m4 0H744l.94.07.9.22.23.08m3.15 2.7l.13.2.36.87.23.9v1.98m0 3.94v3.93m0 3.94v3.93m0 3.94v3.95m0 3.93v3.94m0 3.94v3.93m0 3.93l.02 3.93m0 3.94v3.94m0 3.93V390m0 3.95v3.93m0 3.94v3.93m0 3.94v3.93m0 3.93v3.94m.02 3.94v3.93m0 3.94v3.94m0 3.94v3.94m0 3.93V453m0 3.92v3.94m0 3.94v3.93m0 3.94l.02 3.94m0 3.94v3.94m0 3.93v3.95m0 3.94v3.92m0 3.94v3.94m0 3.93V514l-.07.94-.22.9-.08.23m-2.7 3.15l-.2.13-.87.36-.9.23h-2m-4 0h-3.98m-4 0H727m-4 0h-4m-3.98 0h-4m-3.98 0h-4m-3.98 0h-4m-3.98 0h-4m-3.98 0h-4m-3.98 0h-4m-3.97 0h-4m-3.98 0h-4m-3.98 0h-4m-4 0l-3.98.02m-4 0h-3.98m-4 0h-3.98m-4 0h-3.98m-4 0h-3.98m-3.98 0h-4m-3.98 0h-4m-3.98 0h-4m-3.98 0h-4m-3.98 0h-4m-3.98 0h-4m-3.98 0h-4m-3.98 0h-4m-3.97 0h-4m-4 .02h-3.98m-4 0h-3.98m-4 0h-3.98m-4 0h-3.98m-4 0h-3.98m-4 0h-3.98m-4 0h-3.98m-3.98 0h-4m-3.98 0h-4m-3.98 0h-4m-3.98 0h-4m-3.98 0h-4m-3.98 0h-4m-3.98 0l-4 .02m-3.98 0h-4m-3.98 0h-3.98m-4 0h-3.98m-4 0h-3.98m-4 0h-3.98m-4 0h-3.98m-4 0h-3.98m-4 0h-3.98m-4 0H352m-4 0H346l-.94-.07-.9-.22-.23-.08m-3.15-2.7l-.13-.2-.36-.87-.23-.9v-1.98m0-3.94v-3.93m0-3.94v-3.93m0-3.94v-3.95m0-3.93v-3.94m0-3.94v-3.93m0-3.93l-.02-3.93m0-3.94v-3.94m0-3.93V450m0-3.95v-3.93m0-3.94v-3.93m0-3.94v-3.93m0-3.93v-3.94m-.02-3.94v-3.93m0-3.94v-3.94m0-3.94v-3.94m0-3.93V387m0-3.92v-3.94m0-3.94v-3.93m0-3.94l-.02-3.94m0-3.94v-3.94m0-3.93v-3.95m0-3.94v-3.92m0-3.94v-3.94m0-3.93V326l.07-.94.22-.9.08-.23" stroke="#3a414a" fill="none"/><use xlink:href="#b" transform="matrix(1,0,0,1,345,325) translate(105.46296296296296 17.77777777777778)"/><use xlink:href="#c" transform="matrix(1,0,0,1,345,325) translate(211.4506172839506 17.77777777777778)"/><path d="M640 246a6 6 0 0 1 6-6h208a6 6 0 0 1 6 6v54.67a6 6 0 0 1-6 6H646a6 6 0 0 1-6-6z" stroke="#3a414a" fill="#fff"/><use xlink:href="#d" transform="matrix(1,0,0,1,645,245) translate(6.018518518518519 32.02777777777778)"/><use xlink:href="#e" transform="matrix(1,0,0,1,645,245) translate(84.16666666666667 32.02777777777778)"/><use xlink:href="#f" transform="matrix(1,0,0,1,645,245) translate(107.00617283950618 32.02777777777778)"/><path d="M440 426a6 6 0 0 1 6-6h208a6 6 0 0 1 6 6v54.67a6 6 0 0 1-6 6H446a6 6 0 0 1-6-6z" stroke="#3a414a" fill="#fff"/><use xlink:href="#d" transform="matrix(1,0,0,1,445,425) translate(7.098765432098773 32.02777777777778)"/><use xlink:href="#g" transform="matrix(1,0,0,1,445,425) translate(85.24691358024693 32.02777777777778)"/><use xlink:href="#h" transform="matrix(1,0,0,1,445,425) translate(130.30864197530866 32.02777777777778)"/><path d="M860 426a6 6 0 0 1 6-6h208a6 6 0 0 1 6 6v54.67a6 6 0 0 1-6 6H866a6 6 0 0 1-6-6z" stroke="#3a414a" fill="#fff"/><use xlink:href="#d" transform="matrix(1,0,0,1,865,425) translate(14.074074074074076 21.34027777777778)"/><use xlink:href="#i" transform="matrix(1,0,0,1,865,425) translate(92.22222222222223 21.34027777777778)"/><use xlink:href="#h" transform="matrix(1,0,0,1,865,425) translate(68.70370370370371 48.00694444444444)"/><path d="M750 307.63v49.7a6 6 0 0 1-6 6H556a6 6 0 0 0-6 6v33.82" stroke="#3a414a" fill="none"/><path d="M750.5 307.64h-1v-.5h1z" stroke="#3a414a" stroke-width=".05" fill="#3a414a"/><path d="M550 417.92l-4.64-14.27h9.28z" stroke="#3a414a" fill="#3a414a"/><path d="M750 307.63v49.7a6 6 0 0 0 6 6h208a6 6 0 0 1 6 6v33.82" stroke="#3a414a" fill="none"/><path d="M750.5 307.64h-1v-.5h1z" stroke="#3a414a" stroke-width=".05" fill="#3a414a"/><path d="M970 417.92l-4.64-14.27h9.28z" stroke="#3a414a" fill="#3a414a"/><defs><path fill="#3a414a" d="M75-131c50 2 93 3 93-48 0-46-48-41-93-41v89zm0 115c55 4 111 6 111-51 0-53-58-48-111-48v99zm148-52C223 24 102-3 10 0v-9l31-5v-208l-31-4v-10c77 6 193-24 194 56 0 33-20 48-48 54 36 5 67 20 67 58" id="j"/><path fill="#3a414a" d="M57-145c16-10 35-24 60-25v45c-19 1-8-30-40-17l-20 6v124l29 4v8H7v-8l21-4v-141c-8-3-24 2-21-12h48" id="k"/><path fill="#3a414a" d="M90-170c52 0 76 32 76 87 0 54-24 87-77 87-51 0-75-34-75-87 0-54 24-87 76-87zM89-10c39 0 46-35 46-73 0-39-7-73-46-73-39 1-44 34-44 73s6 72 44 73" id="l"/><path fill="#3a414a" d="M240-154L185 4h-14l-41-109L90 4H77L20-153c-7-3-23 1-20-12h79v8l-27 4L91-41l40-108h14l40 109 38-113-28-4v-8h63v8" id="m"/><path fill="#3a414a" d="M41-130c7 48 86 23 86 84 0 56-69 57-112 41v-40c20 0 9 29 31 31 35 19 77-26 41-50-27-18-72-13-72-59 0-50 58-52 100-41v36c-19 1-8-25-28-25-21-7-50-1-46 23" id="n"/><path fill="#3a414a" d="M84-170c49 0 66 33 63 87H46c-8 60 38 80 95 63v10C128-2 108 4 88 4 34 4 14-29 14-84c-1-54 22-86 70-86zm33 73c12-57-57-82-69-24-1 7-2 15-2 24h71" id="o"/><g id="a"><use transform="matrix(0.06172839506172839,0,0,0.06172839506172839,0,0)" xlink:href="#j"/><use transform="matrix(0.06172839506172839,0,0,0.06172839506172839,14.814814814814813,0)" xlink:href="#k"/><use transform="matrix(0.06172839506172839,0,0,0.06172839506172839,22.160493827160494,0)" xlink:href="#l"/><use transform="matrix(0.06172839506172839,0,0,0.06172839506172839,33.27160493827161,0)" xlink:href="#m"/><use transform="matrix(0.06172839506172839,0,0,0.06172839506172839,49.25925925925926,0)" xlink:href="#n"/><use transform="matrix(0.06172839506172839,0,0,0.06172839506172839,57.901234567901234,0)" xlink:href="#o"/><use transform="matrix(0.06172839506172839,0,0,0.06172839506172839,67.71604938271605,0)" xlink:href="#k"/></g><path fill="#3a414a" d="M178-68c0 79-95 82-154 59v-54h12c1 35 22 52 60 52 50 0 69-58 33-82-39-24-105-21-105-85 0-67 86-66 142-53v49h-12l-6-29c-31-27-121-7-89 42 28 43 119 24 119 101" id="p"/><path fill="#3a414a" d="M164-154L98 4H85L17-153c-7-3-20 0-17-12h77v8l-26 4L99-38l46-115-26-4v-8h61v8" id="q"/><path fill="#3a414a" d="M13-71v-27h94v27H13" id="r"/><path fill="#3a414a" d="M47-200c-23 0-25-39 0-38 13 0 18 7 20 19-1 11-8 19-20 19zM65-12l28 4v8H8v-8l28-4v-141l-24-4v-8h53v153" id="s"/><path fill="#3a414a" d="M13-81c0-71 46-101 114-85l-1-72-28-4v-8h57v238c8 3 24-2 21 12h-47l-2-12C80 23 13-1 13-81zm77-74c-37 1-44 33-45 74 0 38 9 66 45 66 14 0 27-3 36-7v-130c-10-1-24-3-36-3" id="t"/><g id="b"><use transform="matrix(0.06172839506172839,0,0,0.06172839506172839,0,0)" xlink:href="#p"/><use transform="matrix(0.06172839506172839,0,0,0.06172839506172839,12.345679012345679,0)" xlink:href="#o"/><use transform="matrix(0.06172839506172839,0,0,0.06172839506172839,22.160493827160494,0)" xlink:href="#k"/><use transform="matrix(0.06172839506172839,0,0,0.06172839506172839,29.50617283950617,0)" xlink:href="#q"/><use transform="matrix(0.06172839506172839,0,0,0.06172839506172839,40.61728395061728,0)" xlink:href="#o"/><use transform="matrix(0.06172839506172839,0,0,0.06172839506172839,50.432098765432094,0)" xlink:href="#k"/><use transform="matrix(0.06172839506172839,0,0,0.06172839506172839,57.34567901234567,0)" xlink:href="#r"/><use transform="matrix(0.06172839506172839,0,0,0.06172839506172839,64.69135802469135,0)" xlink:href="#n"/><use transform="matrix(0.06172839506172839,0,0,0.06172839506172839,73.33333333333333,0)" xlink:href="#s"/><use transform="matrix(0.06172839506172839,0,0,0.06172839506172839,79.50617283950616,0)" xlink:href="#t"/><use transform="matrix(0.06172839506172839,0,0,0.06172839506172839,90.61728395061728,0)" xlink:href="#o"/></g><path fill="#3a414a" d="M108-235c-52 28-62 95-58 178 3 56 21 97 58 119v15C7 49-17-153 67-223c12-10 25-19 41-27v15" id="u"/><path fill="#3a414a" d="M203-222l-32-4v-10h81v10l-31 4V0h-17L59-212v198l32 5v9H10v-9l31-5v-208l-31-4v-10h72L203-61v-161" id="v"/><path fill="#3a414a" d="M45-37c13 0 21 8 21 21C67-2 57 4 45 5 33 4 23-2 24-16c0-13 8-21 21-21" id="w"/><path fill="#3a414a" d="M50-238c28 0 22 38 0 38-10-2-19-7-19-19s7-18 19-19zM3 58c24 15 35-10 35-42v-169l-25-4v-8h54V7c4 51-28 81-77 66V38C3 36-1 51 3 58" id="x"/><path fill="#3a414a" d="M12-250C113-222 137-19 52 49 40 59 28 69 12 77V62C56 37 70-16 70-87c0-70-13-123-58-148v-15" id="y"/><g id="c"><use transform="matrix(0.06172839506172839,0,0,0.06172839506172839,0,0)" xlink:href="#u"/><use transform="matrix(0.06172839506172839,0,0,0.06172839506172839,7.345679012345679,0)" xlink:href="#v"/><use transform="matrix(0.06172839506172839,0,0,0.06172839506172839,23.333333333333332,0)" xlink:href="#l"/><use transform="matrix(0.06172839506172839,0,0,0.06172839506172839,34.44444444444444,0)" xlink:href="#t"/><use transform="matrix(0.06172839506172839,0,0,0.06172839506172839,45.55555555555556,0)" xlink:href="#o"/><use transform="matrix(0.06172839506172839,0,0,0.06172839506172839,55.370370370370374,0)" xlink:href="#w"/><use transform="matrix(0.06172839506172839,0,0,0.06172839506172839,60.92592592592593,0)" xlink:href="#x"/><use transform="matrix(0.06172839506172839,0,0,0.06172839506172839,67.09876543209877,0)" xlink:href="#n"/><use transform="matrix(0.06172839506172839,0,0,0.06172839506172839,75.74074074074075,0)" xlink:href="#y"/></g><path fill="#3a414a" d="M54-38c-1 25 24 26 44 20v12C71 10 25 9 25-35v-115H4c-2-14 14-10 21-15l18-38h11v38h38v15H54v112" id="z"/><g id="d"><use transform="matrix(0.06172839506172839,0,0,0.06172839506172839,0,0)" xlink:href="#j"/><use transform="matrix(0.06172839506172839,0,0,0.06172839506172839,14.814814814814813,0)" xlink:href="#k"/><use transform="matrix(0.06172839506172839,0,0,0.06172839506172839,22.160493827160494,0)" xlink:href="#o"/><use transform="matrix(0.06172839506172839,0,0,0.06172839506172839,31.975308641975307,0)" xlink:href="#q"/><use transform="matrix(0.06172839506172839,0,0,0.06172839506172839,43.08641975308642,0)" xlink:href="#s"/><use transform="matrix(0.06172839506172839,0,0,0.06172839506172839,49.25925925925926,0)" xlink:href="#z"/><use transform="matrix(0.06172839506172839,0,0,0.06172839506172839,55.4320987654321,0)" xlink:href="#o"/><use transform="matrix(0.06172839506172839,0,0,0.06172839506172839,65.24691358024691,0)" xlink:href="#k"/></g><path fill="#3a414a" d="M125-118c4-37-41-34-68-26v132l23 4v8H8C5-13 21-9 28-12v-141c-7-3-23 1-20-12h47l2 13c31-23 98-29 98 31v109c7 3 23-1 20 12h-72v-8l22-4v-106" id="A"/><g id="e"><use transform="matrix(0.06172839506172839,0,0,0.06172839506172839,0,0)" xlink:href="#s"/><use transform="matrix(0.06172839506172839,0,0,0.06172839506172839,6.172839506172839,0)" xlink:href="#A"/></g><path fill="#3a414a" d="M55 0v-9l38-5v-207c-22 1-53 0-70 4l-5 37H7v-56h207v56h-12l-5-37-70-3v206l37 5v9H55" id="B"/><path fill="#3a414a" d="M161-154L85 37C75 66 49 86 8 75V39c18-2 6 24 29 21 30-4 38-32 47-58L21-153c-7-3-20 0-17-12h77v8l-26 4 45 116 43-116-26-4v-8h62v8" id="C"/><path fill="#3a414a" d="M166-85c3 67-44 102-111 85l1 64 29 4v9H6v-9l21-4v-217c-7-3-22 1-19-12h46l1 9c11-8 26-14 45-14 47 2 64 36 66 85zM56-13c53 14 83-14 78-72 7-53-33-79-78-60v132" id="D"/><path fill="#3a414a" d="M45-84c0 64 52 80 104 63 1 25-30 25-55 25-56 0-80-32-80-88 0-76 62-98 131-80v46h-10c-5-15-4-31-23-35-47-10-67 21-67 69" id="E"/><g id="f"><use transform="matrix(0.06172839506172839,0,0,0.06172839506172839,0,0)" xlink:href="#B"/><use transform="matrix(0.06172839506172839,0,0,0.06172839506172839,11.975308641975307,0)" xlink:href="#C"/><use transform="matrix(0.06172839506172839,0,0,0.06172839506172839,23.086419753086417,0)" xlink:href="#D"/><use transform="matrix(0.06172839506172839,0,0,0.06172839506172839,34.19753086419753,0)" xlink:href="#o"/><use transform="matrix(0.06172839506172839,0,0,0.06172839506172839,44.01234567901235,0)" xlink:href="#p"/><use transform="matrix(0.06172839506172839,0,0,0.06172839506172839,56.358024691358025,0)" xlink:href="#E"/><use transform="matrix(0.06172839506172839,0,0,0.06172839506172839,66.17283950617283,0)" xlink:href="#k"/><use transform="matrix(0.06172839506172839,0,0,0.06172839506172839,73.51851851851852,0)" xlink:href="#s"/><use transform="matrix(0.06172839506172839,0,0,0.06172839506172839,79.69135802469135,0)" xlink:href="#D"/><use transform="matrix(0.06172839506172839,0,0,0.06172839506172839,90.80246913580247,0)" xlink:href="#z"/></g><path fill="#3a414a" d="M126-118c4-37-42-32-68-25v131l24 4v8H8C5-13 21-9 28-12v-141c-7-3-23 1-20-12h48l1 13c22-15 77-30 92 2 32-22 104-36 104 29v109c8 3 24-2 21 12h-75v-8l25-4v-106c3-39-45-31-72-24 7 37 1 88 3 130l25 4v8h-78v-8l24-4v-106" id="F"/><g id="g"><use transform="matrix(0.06172839506172839,0,0,0.06172839506172839,0,0)" xlink:href="#A"/><use transform="matrix(0.06172839506172839,0,0,0.06172839506172839,11.11111111111111,0)" xlink:href="#D"/><use transform="matrix(0.06172839506172839,0,0,0.06172839506172839,22.22222222222222,0)" xlink:href="#F"/></g><path fill="#3a414a" d="M32-163c41-10 102-14 102 39v112c8 3 24-2 21 12h-45l-4-17C83 13 3 13 13-46c-2-50 45-50 92-51 4-36-5-70-42-56-6 2-12 4-16 6-4 7 0 23-15 20v-36zM42-47c0 41 41 33 63 22v-59c-34 1-63-1-63 37" id="G"/><path fill="#3a414a" d="M60-80l68-73c-7-3-20 0-17-12h58c3 13-13 9-20 12l-47 48 60 93c7 3 21-1 18 12h-68c-3-12 9-9 15-12L82-83 60-60v48c7 3 21-1 18 12H10v-8l21-4v-226l-24-4v-8h53v170" id="H"/><path fill="#3a414a" d="M141-152c28 39 5 97-54 97-9 0-20-2-27-3L49-35c29 22 130-14 124 52-4 45-38 57-88 61C21 83-8 26 45-2 33-6 22-15 21-31l28-31c-19-9-28-26-28-51-2-51 53-65 100-52l38-20 7 8zM85 64c35 0 61-11 61-42 0-35-57-17-89-21-9 8-16 19-17 34 0 25 19 29 45 29zM52-113c1 26 7 46 35 44 28-1 34-16 35-44 0-26-6-43-34-43s-36 17-36 43" id="I"/><g id="h"><use transform="matrix(0.06172839506172839,0,0,0.06172839506172839,0,0)" xlink:href="#D"/><use transform="matrix(0.06172839506172839,0,0,0.06172839506172839,11.11111111111111,0)" xlink:href="#G"/><use transform="matrix(0.06172839506172839,0,0,0.06172839506172839,20.925925925925924,0)" xlink:href="#E"/><use transform="matrix(0.06172839506172839,0,0,0.06172839506172839,30.74074074074074,0)" xlink:href="#H"/><use transform="matrix(0.06172839506172839,0,0,0.06172839506172839,41.85185185185185,0)" xlink:href="#G"/><use transform="matrix(0.06172839506172839,0,0,0.06172839506172839,51.666666666666664,0)" xlink:href="#I"/><use transform="matrix(0.06172839506172839,0,0,0.06172839506172839,62.77777777777777,0)" xlink:href="#o"/></g><path fill="#3a414a" d="M52-115c0 93 80 130 150 87l7-35h11l-1 55c-23 7-52 12-83 12C60 4 19-37 15-115c-5-113 97-141 201-114l1 51h-12l-5-30c-15-9-39-16-62-16-66 0-86 41-86 109" id="J"/><path fill="#3a414a" d="M106-76c4 61-43 93-98 74v-43h11c2 18 5 33 28 33 16 0 25-11 25-33v-177l-30-4v-10h91v10l-27 4v146" id="K"/><g id="i"><use transform="matrix(0.06172839506172839,0,0,0.06172839506172839,0,0)" xlink:href="#J"/><use transform="matrix(0.06172839506172839,0,0,0.06172839506172839,14.814814814814813,0)" xlink:href="#l"/><use transform="matrix(0.06172839506172839,0,0,0.06172839506172839,25.925925925925924,0)" xlink:href="#F"/><use transform="matrix(0.06172839506172839,0,0,0.06172839506172839,43.20987654320987,0)" xlink:href="#F"/><use transform="matrix(0.06172839506172839,0,0,0.06172839506172839,60.49382716049382,0)" xlink:href="#l"/><use transform="matrix(0.06172839506172839,0,0,0.06172839506172839,71.60493827160494,0)" xlink:href="#A"/><use transform="matrix(0.06172839506172839,0,0,0.06172839506172839,82.71604938271605,0)" xlink:href="#K"/><use transform="matrix(0.06172839506172839,0,0,0.06172839506172839,91.35802469135803,0)" xlink:href="#p"/></g></defs></g></svg>